<?xml version="1.0" standalone="no"?>
<!DOCTYPE svg PUBLIC "-//W3C//DTD SVG 20010904//EN"
 "http://www.w3.org/TR/2001/REC-SVG-20010904/DTD/svg10.dtd">
<svg version="1.0" xmlns="http://www.w3.org/2000/svg"
 width="904.000000pt" height="1280.000000pt" viewBox="0 0 904.000000 1280.000000"
 preserveAspectRatio="xMidYMid meet">
<metadata>
Created by potrace 1.15, written by Peter Selinger 2001-2017
</metadata>
<g transform="translate(0.000000,1280.000000) scale(0.100000,-0.100000)"
fill="#000000" stroke="none">
<path d="M4530 12794 c-240 -23 -523 -106 -736 -215 -201 -103 -356 -221 -534
-406 -281 -291 -459 -643 -531 -1049 -19 -106 -23 -165 -23 -334 0 -222 11
-306 65 -518 179 -700 747 -1259 1458 -1436 184 -46 234 -51 496 -50 227 1
261 3 365 26 63 14 118 21 121 17 9 -14 143 -588 138 -593 -6 -6 -231 -20
-1369 -86 -1550 -90 -2377 -139 -2650 -155 -135 -8 -328 -19 -430 -25 -565
-33 -623 -38 -685 -61 -81 -30 -164 -113 -191 -189 -29 -84 -26 -190 7 -261
56 -120 155 -188 284 -197 63 -4 334 9 785 38 85 6 544 33 1020 60 476 28
1092 64 1370 80 278 16 818 48 1200 70 382 21 718 41 747 44 l52 4 45 -186
c274 -1128 310 -1681 150 -2342 -63 -262 -215 -724 -243 -739 -9 -5 -133 -53
-276 -106 -1680 -628 -2565 -1058 -3168 -1538 -130 -103 -337 -304 -442 -429
-308 -367 -519 -781 -685 -1343 -110 -376 -132 -471 -128 -555 7 -129 70 -225
185 -282 59 -29 77 -33 148 -33 71 0 88 4 147 33 122 60 124 63 258 497 143
462 170 536 270 740 271 552 660 912 1435 1328 447 239 1079 511 2145 921 274
106 274 106 340 99 137 -14 789 -272 1178 -467 392 -196 699 -421 821 -599 94
-138 125 -243 125 -422 0 -274 -103 -577 -383 -1125 -74 -146 -156 -305 -181
-354 -44 -86 -45 -92 -45 -180 0 -79 4 -98 28 -148 53 -108 160 -177 284 -186
89 -6 157 14 228 68 45 33 63 60 152 221 152 279 204 380 283 549 245 530 345
950 310 1305 -48 487 -303 850 -848 1209 -324 213 -780 437 -1277 626 -104 40
-193 74 -196 76 -3 2 16 67 43 146 135 393 220 773 254 1128 27 275 10 681
-42 1035 -34 236 -160 853 -204 1004 -5 19 -8 36 -6 39 2 2 87 -2 188 -9 253
-18 1104 -18 1263 -1 368 41 635 111 859 225 289 147 460 363 517 652 20 99
17 363 -5 490 -89 521 -347 1112 -916 2105 -314 548 -354 613 -407 666 -66 66
-136 94 -233 94 -133 0 -236 -63 -300 -182 -31 -57 -34 -71 -35 -148 l0 -85
141 -250 c813 -1437 1076 -2009 1101 -2397 16 -259 -102 -376 -453 -447 -227
-46 -398 -54 -979 -47 -491 5 -870 17 -880 27 -3 3 -169 685 -211 864 -3 16
12 32 73 75 107 76 334 306 413 417 193 274 314 561 366 868 22 128 29 398 15
525 -88 768 -565 1394 -1283 1679 -97 38 -273 85 -398 106 -92 16 -407 27
-500 19z m456 -705 c319 -69 602 -251 797 -514 72 -97 168 -290 201 -405 77
-271 74 -541 -10 -796 -60 -186 -175 -374 -313 -514 -250 -252 -545 -384 -891
-397 -219 -8 -378 19 -565 96 -411 169 -698 518 -797 969 -28 128 -31 375 -5
504 52 261 172 491 354 679 222 229 489 360 823 403 80 10 310 -4 406 -25z"/>
</g>
</svg>
